<svg width="128" height="92" viewBox="0 0 128 92" fill="none" xmlns="http://www.w3.org/2000/svg">
<g filter="url(#filter0_dd_2125_3)">
<path d="M76.4104 59.7175C74.4197 60.6264 67.6661 49.611 65.4791 49.6889C63.2922 49.7669 27.362 83.8137 25.3117 83.0488C23.2614 82.2839 47.5265 49.4439 45.9249 47.9526C44.3234 46.4613 7.9836 54.4118 7.07468 52.4211C6.16575 50.4305 39.7603 36.4676 39.6824 34.2806C39.6045 32.0937 4.24733 16.4606 5.01224 14.4102C5.77715 12.3599 51.1988 23.2809 52.6902 21.6793C54.1815 20.0778 53.36 7.90893 55.3506 7L122.371 27.4244L62.195 28.5838C58.7931 28.8533 56.2473 31.8719 57.4613 36.1427C59.5933 40.8122 65.1566 39.1716 66.7062 38.4641C70.9088 36.5452 121.012 29 122.371 27.4244L76.4104 59.7175Z" fill="url(#paint0_linear_2125_3)"/>
</g>
<defs>
<filter id="filter0_dd_2125_3" x="0" y="0" width="127.371" height="91.0615" filterUnits="userSpaceOnUse" color-interpolation-filters="sRGB">
<feFlood flood-opacity="0" result="BackgroundImageFix"/>
<feColorMatrix in="SourceAlpha" type="matrix" values="0 0 0 0 0 0 0 0 0 0 0 0 0 0 0 0 0 0 127 0" result="hardAlpha"/>
<feOffset dy="4"/>
<feGaussianBlur stdDeviation="2"/>
<feComposite in2="hardAlpha" operator="out"/>
<feColorMatrix type="matrix" values="0 0 0 0 0 0 0 0 0 0 0 0 0 0 0 0 0 0 0.25 0"/>
<feBlend mode="normal" in2="BackgroundImageFix" result="effect1_dropShadow_2125_3"/>
<feColorMatrix in="SourceAlpha" type="matrix" values="0 0 0 0 0 0 0 0 0 0 0 0 0 0 0 0 0 0 127 0" result="hardAlpha"/>
<feOffset dy="-2"/>
<feGaussianBlur stdDeviation="2.5"/>
<feComposite in2="hardAlpha" operator="out"/>
<feColorMatrix type="matrix" values="0 0 0 0 0 0 0 0 0 0 0 0 0 0 0 0 0 0 0.05 0"/>
<feBlend mode="normal" in2="effect1_dropShadow_2125_3" result="effect2_dropShadow_2125_3"/>
<feBlend mode="normal" in="SourceGraphic" in2="effect2_dropShadow_2125_3" result="shape"/>
</filter>
<linearGradient id="paint0_linear_2125_3" x1="55.5122" y1="-10" x2="74.0122" y2="61" gradientUnits="userSpaceOnUse">
<stop offset="0.543269" stop-color="#2A78FF"/>
<stop offset="1" stop-color="#331999"/>
</linearGradient>
</defs>
</svg>
